# xmcd
#
# Track frame offsets:
#	150
#	28981
#	54653
#	78952
#	117492
#	138585
#	162468
#
# Disc length: 2325 seconds
#
# Revision: 5
# Processed by: cddbd v1.5.2PL0 Copyright (c) Steve Scherf et al.
# Submitted via: audiograbber 1.83.01
#
DISCID=61091307
DTITLE=Ahmad Jamal/ Live At Bubba's - Autumn in New York
DYEAR=1980
DGENRE=Jazz
TTITLE0=Waltz for Debbie
TTITLE1=Folks who Live on the Hill
TTITLE2=People
TTITLE3=Baia
TTITLE4=The Good Life
TTITLE5=Autumn in New York
TTITLE6=I've Never Been in Love Before
EXTD=YEAR: 1980
EXTT0=
EXTT1=
EXTT2=
EXTT3=
EXTT4=
EXTT5=
EXTT6=
PLAYORDER=
